<svg width="24" height="24" viewBox="0 0 24 24" xmlns="http://www.w3.org/2000/svg">
  <g fill="none" fill-rule="evenodd">
    <path d="M20.64 12.2045c0-.6381-.0573-.9841-.1636-1.4091H12v2.6613h4.8436c-.2086 1.125-.8427 1.8627-1.784 2.3181v1.5139h2.8814c1.6913-1.5568 2.6632-3.8504 2.6632-6.2631z" fill="#4285F4"/>
    <path d="M12 21c2.43 0 4.4673-.806 5.9564-2.1805l-2.8814-1.5139c-.8059.54-1.8368.859-3.075.859-2.3659 0-4.3682-1.5977-5.0859-3.7477H3.9573v1.5318C5.4382 18.9832 8.4818 21 12 21z" fill="#34A853"/>
    <path d="M6.9141 14.3409c-.18-.54-.2832-1.1182-.2832-1.7045s.1023-1.1645.2832-1.7045V9.4181H3.9573A8.9965 8.9965 0 0 0 3 12.6364c0 1.4459.3468 2.8118.9573 4.0227l2.9568-1.5318z" fill="#FBBC05"/>
    <path d="M12 5.1818c1.3336 0 2.5295.4591 3.4718 1.3614l2.5909-2.5909C16.4632 2.3864 14.426 1.6364 12 1.6364 8.4818 1.6364 5.4382 3.6532 3.9573 6.6364l2.9568 1.5318C7.6318 6.7795 9.6341 5.1818 12 5.1818z" fill="#EA4335"/>
  </g>
</svg>
